<?xml version="1.0" encoding="UTF-8" standalone="no"?>
<!DOCTYPE svg PUBLIC "-//W3C//DTD SVG 1.1//EN" "http://www.w3.org/Graphics/SVG/1.1/DTD/svg11.dtd">
<svg width="100%" height="100%" viewBox="0 0 400 400" version="1.1" xmlns="http://www.w3.org/2000/svg" xmlns:xlink="http://www.w3.org/1999/xlink" xml:space="preserve" style="fill-rule:evenodd;clip-rule:evenodd;stroke-linejoin:round;stroke-miterlimit:1.41421;">
    <g transform="matrix(1.00735,0.177623,-0.177623,1.00735,65.1708,-48.5299)">
        <path d="M318.644,84.409C318.644,76.316 312.073,69.745 303.98,69.745L40.022,69.745C31.928,69.745 25.357,76.316 25.357,84.409L25.357,348.367C25.357,356.461 31.928,363.032 40.022,363.032L303.98,363.032C312.073,363.032 318.644,356.461 318.644,348.367L318.644,84.409Z" style="fill:white;fill-opacity:0.8;"/>
        <clipPath id="_clip1">
            <path d="M318.644,84.409C318.644,76.316 312.073,69.745 303.98,69.745L40.022,69.745C31.928,69.745 25.357,76.316 25.357,84.409L25.357,348.367C25.357,356.461 31.928,363.032 40.022,363.032L303.98,363.032C312.073,363.032 318.644,356.461 318.644,348.367L318.644,84.409Z"/>
        </clipPath>
        <g clip-path="url(#_clip1)">
            <g transform="matrix(9.39776,-0.579881,0.103495,1.67728,-2735.03,-323.447)">
                <path d="M324.209,332.145C324.209,330.148 323.92,328.527 323.564,328.527L288.681,328.527C288.325,328.527 288.035,330.148 288.035,332.145L288.035,361.084C288.035,363.08 288.325,364.701 288.681,364.701L323.564,364.701C323.92,364.701 324.209,363.08 324.209,361.084L324.209,332.145Z" style="fill:rgb(234,67,53);"/>
                <path d="M288.589,327.099L288.6,327.093L288.612,327.088L288.623,327.083L288.635,327.08L288.646,327.077L288.658,327.075L288.669,327.073L288.68,327.073L323.565,327.073L323.575,327.073L323.587,327.075L323.599,327.077L323.61,327.08L323.622,327.083L323.633,327.088L323.645,327.093L323.656,327.099L323.667,327.106L323.679,327.114L323.69,327.122L323.701,327.131L323.712,327.142L323.724,327.152L323.735,327.164L323.746,327.176L323.757,327.189L323.768,327.203L323.779,327.218L323.79,327.233L323.801,327.249L323.811,327.266L323.822,327.283L323.833,327.302L323.843,327.32L323.854,327.34L323.865,327.36L323.875,327.382L323.885,327.403L323.896,327.426L323.906,327.449L323.916,327.473L323.926,327.497L323.936,327.522L323.946,327.548L323.956,327.574L323.966,327.601L323.976,327.629L323.986,327.657L323.995,327.687L324.005,327.716L324.014,327.746L324.024,327.777L324.033,327.809L324.043,327.841L324.052,327.874L324.061,327.907L324.07,327.941L324.079,327.975L324.088,328.01L324.097,328.046L324.105,328.082L324.114,328.119L324.123,328.156L324.131,328.194L324.14,328.232L324.148,328.271L324.156,328.311L324.164,328.351L324.172,328.391L324.18,328.433L324.188,328.474L324.196,328.516L324.204,328.559L324.211,328.602L324.219,328.646L324.226,328.69L324.234,328.735L324.241,328.78L324.248,328.826L324.255,328.872L324.262,328.919L324.269,328.966L324.276,329.013L324.282,329.061L324.289,329.11L324.295,329.159L324.302,329.208L324.308,329.258L324.314,329.309L324.32,329.359L324.326,329.411L324.332,329.462L324.338,329.514L324.343,329.567L324.349,329.62L324.354,329.673L324.359,329.727L324.365,329.781L324.37,329.835L324.375,329.89L324.379,329.945L324.384,330.001L324.389,330.057L324.393,330.114L324.398,330.17L324.402,330.228L324.406,330.285L324.41,330.343L324.414,330.401L324.418,330.46L324.421,330.519L324.425,330.578L324.428,330.637L324.431,330.697L324.435,330.758L324.438,330.818L324.44,330.879L324.443,330.94L324.446,331.001L324.448,331.063L324.451,331.125L324.453,331.187L324.455,331.249L324.457,331.311L324.459,331.374L324.46,331.437L324.462,331.501L324.463,331.564L324.464,331.628L324.465,331.692L324.466,331.756L324.467,331.821L324.468,331.885L324.468,331.95L324.469,332.015L324.469,332.08L324.469,332.14L324.469,361.089L324.469,361.149L324.469,361.214L324.468,361.279L324.468,361.344L324.467,361.408L324.466,361.473L324.465,361.537L324.464,361.601L324.463,361.665L324.462,361.728L324.46,361.791L324.459,361.854L324.457,361.917L324.455,361.98L324.453,362.043L324.451,362.104L324.448,362.166L324.446,362.228L324.443,362.289L324.44,362.35L324.438,362.411L324.435,362.471L324.431,362.532L324.428,362.592L324.425,362.651L324.421,362.71L324.418,362.769L324.414,362.828L324.41,362.886L324.406,362.944L324.402,363.001L324.398,363.058L324.393,363.115L324.389,363.172L324.384,363.228L324.379,363.283L324.375,363.339L324.37,363.394L324.365,363.448L324.359,363.502L324.354,363.556L324.349,363.609L324.343,363.662L324.338,363.715L324.332,363.767L324.326,363.818L324.32,363.87L324.314,363.92L324.308,363.971L324.302,364.02L324.295,364.07L324.289,364.119L324.282,364.167L324.276,364.216L324.269,364.263L324.262,364.31L324.255,364.357L324.248,364.403L324.241,364.449L324.234,364.494L324.226,364.539L324.219,364.583L324.211,364.627L324.204,364.67L324.196,364.712L324.188,364.755L324.18,364.796L324.172,364.837L324.164,364.878L324.156,364.918L324.148,364.958L324.14,364.997L324.131,365.035L324.123,365.073L324.114,365.11L324.105,365.147L324.097,365.183L324.088,365.219L324.079,365.254L324.07,365.288L324.061,365.322L324.052,365.355L324.043,365.388L324.033,365.42L324.024,365.452L324.014,365.483L324.005,365.513L323.995,365.542L323.986,365.571L323.976,365.6L323.966,365.627L323.956,365.655L323.946,365.681L323.936,365.707L323.926,365.732L323.916,365.756L323.906,365.78L323.896,365.803L323.885,365.826L323.875,365.847L323.865,365.868L323.854,365.889L323.843,365.908L323.833,365.927L323.822,365.946L323.811,365.963L323.801,365.98L323.79,365.996L323.779,366.011L323.768,366.026L323.757,366.04L323.746,366.053L323.735,366.065L323.724,366.077L323.713,366.087L323.701,366.097L323.69,366.107L323.679,366.115L323.667,366.123L323.656,366.13L323.645,366.136L323.633,366.141L323.622,366.146L323.61,366.149L323.599,366.152L323.587,366.154L323.575,366.155L323.565,366.156L288.68,366.156L288.669,366.155L288.658,366.154L288.646,366.152L288.635,366.149L288.623,366.146L288.612,366.141L288.6,366.136L288.589,366.13L288.577,366.123L288.566,366.115L288.555,366.107L288.544,366.097L288.532,366.087L288.521,366.077L288.51,366.065L288.499,366.053L288.488,366.04L288.477,366.026L288.466,366.011L288.455,365.996L288.444,365.98L288.433,365.963L288.423,365.946L288.412,365.927L288.401,365.908L288.391,365.889L288.38,365.868L288.37,365.847L288.359,365.826L288.349,365.803L288.339,365.78L288.329,365.756L288.319,365.732L288.308,365.707L288.298,365.681L288.289,365.655L288.279,365.627L288.269,365.6L288.259,365.571L288.249,365.542L288.24,365.513L288.23,365.483L288.221,365.452L288.212,365.42L288.202,365.388L288.193,365.355L288.184,365.322L288.175,365.288L288.166,365.254L288.157,365.219L288.148,365.183L288.139,365.147L288.131,365.11L288.122,365.073L288.114,365.035L288.105,364.997L288.097,364.958L288.089,364.918L288.081,364.878L288.072,364.837L288.065,364.796L288.057,364.755L288.049,364.712L288.041,364.67L288.033,364.627L288.026,364.583L288.019,364.539L288.011,364.494L288.004,364.449L287.997,364.403L287.99,364.357L287.983,364.31L287.976,364.263L287.969,364.216L287.962,364.167L287.956,364.119L287.949,364.07L287.943,364.021L287.937,363.971L287.931,363.92L287.925,363.87L287.919,363.818L287.913,363.767L287.907,363.715L287.902,363.662L287.896,363.609L287.891,363.556L287.885,363.502L287.88,363.448L287.875,363.394L287.87,363.339L287.865,363.283L287.861,363.228L287.856,363.172L287.852,363.115L287.847,363.058L287.843,363.001L287.839,362.944L287.835,362.886L287.831,362.828L287.827,362.769L287.824,362.71L287.82,362.651L287.817,362.592L287.813,362.532L287.81,362.472L287.807,362.411L287.804,362.35L287.802,362.289L287.799,362.228L287.797,362.166L287.794,362.105L287.792,362.042L287.79,361.98L287.788,361.917L287.786,361.855L287.785,361.791L287.783,361.728L287.782,361.665L287.781,361.601L287.779,361.537L287.779,361.473L287.778,361.408L287.777,361.344L287.777,361.279L287.776,361.214L287.776,361.149L287.776,361.089L287.776,332.14L287.776,332.08L287.776,332.015L287.777,331.95L287.777,331.885L287.778,331.821L287.779,331.756L287.779,331.692L287.781,331.628L287.782,331.564L287.783,331.501L287.785,331.437L287.786,331.374L287.788,331.311L287.79,331.249L287.792,331.186L287.794,331.124L287.797,331.062L287.799,331.001L287.802,330.94L287.804,330.879L287.807,330.818L287.81,330.757L287.813,330.697L287.817,330.637L287.82,330.578L287.824,330.519L287.827,330.46L287.831,330.401L287.835,330.343L287.839,330.285L287.843,330.228L287.847,330.17L287.852,330.114L287.856,330.057L287.861,330.001L287.865,329.946L287.87,329.89L287.875,329.835L287.88,329.781L287.885,329.727L287.891,329.673L287.896,329.62L287.902,329.567L287.907,329.514L287.913,329.462L287.919,329.411L287.925,329.359L287.931,329.309L287.937,329.258L287.943,329.208L287.949,329.159L287.956,329.11L287.962,329.061L287.969,329.013L287.976,328.966L287.983,328.919L287.99,328.872L287.997,328.826L288.004,328.78L288.011,328.735L288.019,328.69L288.026,328.646L288.033,328.602L288.041,328.559L288.049,328.516L288.057,328.474L288.064,328.433L288.072,328.391L288.081,328.351L288.089,328.311L288.097,328.271L288.105,328.232L288.114,328.194L288.122,328.156L288.131,328.119L288.139,328.082L288.148,328.046L288.157,328.01L288.166,327.975L288.175,327.941L288.184,327.907L288.193,327.873L288.202,327.841L288.212,327.809L288.221,327.777L288.23,327.746L288.24,327.716L288.249,327.686L288.259,327.657L288.269,327.629L288.279,327.601L288.289,327.574L288.298,327.548L288.308,327.522L288.319,327.497L288.329,327.473L288.339,327.449L288.349,327.426L288.359,327.403L288.37,327.382L288.38,327.36L288.391,327.34L288.401,327.32L288.412,327.302L288.423,327.283L288.433,327.266L288.444,327.249L288.455,327.233L288.466,327.218L288.477,327.203L288.488,327.189L288.499,327.176L288.51,327.164L288.521,327.152L288.532,327.142L288.544,327.131L288.555,327.122L288.566,327.114L288.577,327.106L288.589,327.099ZM288.632,329.999L288.627,330.003L288.622,330.007L288.617,330.011L288.613,330.016L288.608,330.021L288.603,330.026L288.598,330.031L288.594,330.037L288.589,330.043L288.585,330.05L288.58,330.057L288.575,330.064L288.571,330.071L288.566,330.079L288.562,330.087L288.557,330.095L288.553,330.104L288.549,330.113L288.544,330.122L288.54,330.131L288.535,330.141L288.531,330.151L288.527,330.162L288.522,330.172L288.518,330.183L288.514,330.195L288.51,330.206L288.506,330.218L288.502,330.23L288.497,330.242L288.493,330.255L288.489,330.268L288.485,330.281L288.481,330.294L288.477,330.308L288.473,330.322L288.469,330.336L288.466,330.351L288.462,330.365L288.458,330.38L288.454,330.396L288.45,330.411L288.447,330.427L288.443,330.443L288.439,330.459L288.436,330.476L288.432,330.492L288.429,330.509L288.425,330.527L288.422,330.544L288.418,330.562L288.415,330.579L288.412,330.598L288.408,330.616L288.405,330.634L288.402,330.653L288.399,330.672L288.395,330.691L288.392,330.711L288.389,330.73L288.386,330.75L288.383,330.77L288.38,330.79L288.377,330.811L288.374,330.832L288.372,330.852L288.369,330.873L288.366,330.894L288.363,330.916L288.361,330.937L288.358,330.959L288.356,330.981L288.353,331.003L288.351,331.025L288.348,331.048L288.346,331.07L288.344,331.093L288.342,331.116L288.339,331.139L288.337,331.162L288.335,331.185L288.333,331.209L288.331,331.232L288.329,331.256L288.327,331.28L288.325,331.304L288.323,331.329L288.322,331.353L288.32,331.377L288.318,331.402L288.317,331.427L288.315,331.452L288.314,331.477L288.312,331.502L288.311,331.527L288.31,331.553L288.308,331.578L288.307,331.604L288.306,331.63L288.305,331.656L288.304,331.682L288.303,331.708L288.302,331.734L288.301,331.761L288.3,331.787L288.3,331.814L288.299,331.841L288.298,331.868L288.298,331.895L288.297,331.922L288.297,331.95L288.296,331.977L288.296,332.005L288.296,332.033L288.295,332.06L288.295,332.088L288.295,332.117L288.295,332.149L288.295,361.079L288.295,361.112L288.295,361.168L288.296,361.224L288.297,361.279L288.298,361.334L288.299,361.388L288.3,361.441L288.302,361.494L288.304,361.547L288.306,361.599L288.308,361.651L288.311,361.702L288.314,361.752L288.317,361.802L288.32,361.851L288.323,361.9L288.327,361.949L288.331,361.996L288.335,362.044L288.339,362.09L288.344,362.136L288.348,362.181L288.353,362.226L288.358,362.27L288.363,362.313L288.369,362.356L288.374,362.397L288.38,362.438L288.386,362.479L288.392,362.518L288.399,362.557L288.405,362.594L288.412,362.631L288.418,362.667L288.425,362.702L288.432,362.737L288.439,362.77L288.447,362.802L288.454,362.833L288.462,362.863L288.469,362.893L288.477,362.921L288.485,362.948L288.493,362.974L288.502,362.999L288.51,363.023L288.518,363.046L288.527,363.067L288.535,363.088L288.544,363.107L288.553,363.125L288.562,363.142L288.571,363.158L288.58,363.172L288.589,363.185L288.598,363.197L288.608,363.208L288.617,363.218L288.627,363.226L288.637,363.233L288.646,363.238L288.656,363.243L288.666,363.245L288.676,363.247L288.682,363.247L323.563,363.247L323.569,363.247L323.574,363.246L323.579,363.245L323.584,363.244L323.589,363.243L323.594,363.241L323.599,363.238L323.603,363.236L323.608,363.233L323.613,363.23L323.618,363.226L323.623,363.222L323.628,363.218L323.632,363.213L323.637,363.208L323.642,363.203L323.646,363.197L323.651,363.192L323.656,363.185L323.66,363.179L323.665,363.172L323.669,363.165L323.674,363.158L323.678,363.15L323.683,363.142L323.687,363.134L323.692,363.125L323.696,363.116L323.701,363.107L323.705,363.097L323.709,363.088L323.714,363.078L323.718,363.067L323.722,363.057L323.727,363.046L323.731,363.034L323.735,363.023L323.739,363.011L323.743,362.999L323.747,362.987L323.752,362.974L323.756,362.961L323.76,362.948L323.764,362.935L323.768,362.921L323.771,362.907L323.775,362.893L323.779,362.878L323.783,362.863L323.787,362.849L323.791,362.833L323.794,362.818L323.798,362.802L323.802,362.786L323.805,362.77L323.809,362.753L323.813,362.737L323.816,362.72L323.82,362.702L323.823,362.685L323.827,362.667L323.83,362.649L323.833,362.631L323.837,362.613L323.84,362.594L323.843,362.576L323.846,362.557L323.849,362.537L323.853,362.518L323.856,362.498L323.859,362.478L323.862,362.459L323.865,362.438L323.868,362.418L323.87,362.397L323.873,362.377L323.876,362.356L323.879,362.335L323.881,362.313L323.884,362.291L323.887,362.27L323.889,362.248L323.892,362.226L323.894,362.204L323.896,362.181L323.899,362.159L323.901,362.136L323.903,362.113L323.906,362.09L323.908,362.067L323.91,362.043L323.912,362.02L323.914,361.996L323.916,361.973L323.918,361.949L323.92,361.925L323.921,361.9L323.923,361.876L323.925,361.852L323.926,361.827L323.928,361.802L323.93,361.777L323.931,361.752L323.932,361.727L323.934,361.702L323.935,361.676L323.936,361.65L323.938,361.625L323.939,361.599L323.94,361.573L323.941,361.547L323.942,361.521L323.943,361.494L323.944,361.468L323.945,361.441L323.945,361.415L323.946,361.388L323.947,361.361L323.947,361.334L323.948,361.307L323.948,361.279L323.949,361.252L323.949,361.224L323.949,361.196L323.95,361.168L323.95,361.141L323.95,361.112L323.95,361.079L323.95,332.149L323.95,332.117L323.95,332.088L323.95,332.06L323.949,332.033L323.949,332.005L323.949,331.977L323.948,331.95L323.948,331.922L323.947,331.895L323.947,331.868L323.946,331.841L323.945,331.814L323.945,331.788L323.944,331.761L323.943,331.734L323.942,331.708L323.941,331.682L323.94,331.656L323.939,331.63L323.938,331.604L323.936,331.578L323.935,331.553L323.934,331.527L323.932,331.502L323.931,331.477L323.93,331.452L323.928,331.427L323.926,331.402L323.925,331.377L323.923,331.353L323.921,331.329L323.92,331.304L323.918,331.28L323.916,331.256L323.914,331.232L323.912,331.209L323.91,331.185L323.908,331.162L323.906,331.139L323.903,331.116L323.901,331.093L323.899,331.07L323.896,331.048L323.894,331.025L323.892,331.003L323.889,330.981L323.887,330.959L323.884,330.937L323.881,330.916L323.879,330.894L323.876,330.873L323.873,330.852L323.87,330.831L323.868,330.811L323.865,330.791L323.862,330.77L323.859,330.75L323.856,330.731L323.853,330.711L323.849,330.691L323.846,330.672L323.843,330.653L323.84,330.634L323.837,330.616L323.833,330.598L323.83,330.579L323.827,330.562L323.823,330.544L323.82,330.526L323.816,330.509L323.813,330.492L323.809,330.476L323.805,330.459L323.802,330.443L323.798,330.427L323.794,330.411L323.791,330.396L323.787,330.38L323.783,330.365L323.779,330.351L323.775,330.336L323.771,330.322L323.768,330.308L323.764,330.294L323.76,330.281L323.756,330.268L323.752,330.255L323.747,330.242L323.743,330.23L323.739,330.218L323.735,330.206L323.731,330.195L323.727,330.183L323.722,330.172L323.718,330.162L323.714,330.151L323.709,330.141L323.705,330.131L323.701,330.122L323.696,330.113L323.692,330.104L323.687,330.095L323.683,330.087L323.679,330.079L323.674,330.071L323.669,330.064L323.665,330.057L323.66,330.05L323.656,330.043L323.651,330.037L323.646,330.031L323.642,330.026L323.637,330.021L323.632,330.016L323.628,330.011L323.623,330.007L323.618,330.003L323.613,329.999L323.608,329.996L323.603,329.993L323.599,329.991L323.594,329.988L323.589,329.986L323.584,329.985L323.579,329.984L323.574,329.983L323.569,329.982L323.563,329.982L288.682,329.982L288.676,329.982L288.671,329.983L288.666,329.984L288.661,329.985L288.656,329.986L288.651,329.988L288.646,329.991L288.641,329.993L288.637,329.996L288.632,329.999Z"/>
            </g>
            <g transform="matrix(1.30527,-0.411552,0.411552,1.30527,-125.177,-16.8195)">
                <text x="82.122px" y="314.614px" style="font-family:'Insaniburger';font-size:220.224px;fill:none;">N</text>
                <clipPath id="_clip2">
                    <path d="M175.244,233.536L175.244,187.513C175.244,175.039 182.341,168.802 196.535,168.802C210.73,168.802 217.827,175.039 217.827,187.513L217.827,295.259C217.827,307.732 210.73,313.969 196.535,313.969C188.65,313.969 182.413,311.245 177.825,305.797L130.081,249.02L130.081,295.259C130.081,307.732 122.984,313.969 108.79,313.969C94.596,313.969 87.499,307.732 87.499,295.259L87.499,187.513C87.499,175.111 94.596,168.874 108.79,168.802C117.894,168.731 124.418,171.67 128.361,177.62L175.244,233.536Z" clip-rule="nonzero"/>
                </clipPath>
                <g clip-path="url(#_clip2)">
                    <text x="82.122px" y="314.614px" style="font-family:'Insaniburger';font-size:220.224px;">N</text>
                    <g transform="matrix(1.3278,-1.05254e-17,3.07175e-15,4.39676,-300.232,-1284.75)">
                        <rect x="288.035" y="328.527" width="36.174" height="36.174" style="fill:rgb(234,67,53);"/>
                    </g>
                    <g transform="matrix(0.542925,0.653957,-0.300907,0.249817,109.543,78.4725)">
                        <rect x="66.54" y="93.675" width="129.67" height="144.696" style="fill:rgb(251,188,5);"/>
                    </g>
                    <g transform="matrix(0.436523,-2.77556e-17,-3.05311e-16,1.03985,145.915,71.5748)">
                        <rect x="66.54" y="93.675" width="129.67" height="144.696" style="fill:rgb(66,133,244);"/>
                    </g>
                    <g transform="matrix(0.452931,0.546353,-0.245017,0.203121,163.575,172.637)">
                        <rect x="66.54" y="93.675" width="129.67" height="144.696" style="fill:rgb(52,168,83);"/>
                    </g>
                </g>
                <text x="82.122px" y="314.614px" style="font-family:'Insaniburger';font-size:220.224px;fill:none;stroke:black;stroke-width:3.57px;">N</text>
            </g>
        </g>
        <path d="M37.208,67.532L37.42,67.498L37.633,67.467L37.846,67.438L38.061,67.412L38.276,67.389L38.492,67.369L38.708,67.351L38.926,67.335L39.144,67.323L39.362,67.313L39.581,67.306L39.801,67.302L40.014,67.301L303.988,67.301L304.2,67.302L304.42,67.306L304.639,67.313L304.858,67.323L305.076,67.335L305.293,67.351L305.51,67.369L305.726,67.389L305.941,67.412L306.155,67.438L306.369,67.467L306.581,67.498L306.793,67.532L307.004,67.568L307.215,67.607L307.424,67.649L307.633,67.693L307.84,67.739L308.047,67.788L308.252,67.84L308.457,67.894L308.661,67.951L308.863,68.01L309.065,68.071L309.266,68.135L309.465,68.201L309.663,68.27L309.861,68.34L310.057,68.414L310.252,68.489L310.446,68.567L310.638,68.647L310.83,68.73L311.02,68.814L311.209,68.901L311.396,68.99L311.583,69.082L311.768,69.175L311.952,69.271L312.134,69.368L312.316,69.468L312.496,69.57L312.674,69.674L312.851,69.781L313.027,69.889L313.201,69.999L313.374,70.111L313.545,70.226L313.715,70.342L313.883,70.46L314.05,70.58L314.215,70.703L314.379,70.827L314.542,70.953L314.702,71.081L314.861,71.21L315.019,71.342L315.175,71.475L315.329,71.611L315.482,71.748L315.632,71.887L315.782,72.027L315.929,72.17L316.075,72.314L316.219,72.46L316.362,72.607L316.502,72.756L316.641,72.907L316.778,73.06L316.914,73.214L317.047,73.37L317.179,73.528L317.308,73.687L317.436,73.847L317.562,74.01L317.686,74.174L317.809,74.339L317.929,74.506L318.047,74.674L318.163,74.844L318.278,75.015L318.39,75.188L318.5,75.362L318.608,75.538L318.715,75.715L318.819,75.894L318.921,76.073L319.021,76.255L319.118,76.437L319.214,76.621L319.307,76.806L319.399,76.992L319.488,77.18L319.575,77.369L319.659,77.559L319.742,77.751L319.822,77.943L319.9,78.137L319.975,78.332L320.049,78.528L320.12,78.726L320.188,78.924L320.254,79.124L320.318,79.324L320.379,79.526L320.438,79.728L320.495,79.932L320.549,80.137L320.601,80.342L320.65,80.549L320.696,80.756L320.74,80.965L320.782,81.174L320.821,81.385L320.857,81.596L320.891,81.808L320.922,82.02L320.951,82.234L320.977,82.448L321,82.664L321.021,82.879L321.038,83.096L321.054,83.313L321.066,83.531L321.076,83.75L321.083,83.969L321.087,84.189L321.088,84.402L321.088,348.375L321.087,348.588L321.083,348.808L321.076,349.027L321.066,349.246L321.054,349.463L321.038,349.681L321.021,349.897L321,350.113L320.977,350.328L320.951,350.543L320.922,350.756L320.891,350.969L320.857,351.181L320.821,351.392L320.782,351.603L320.74,351.812L320.696,352.02L320.65,352.228L320.601,352.434L320.549,352.64L320.495,352.845L320.438,353.048L320.379,353.251L320.318,353.453L320.254,353.653L320.188,353.853L320.12,354.051L320.049,354.248L319.975,354.444L319.9,354.639L319.822,354.833L319.742,355.026L319.659,355.217L319.575,355.407L319.488,355.596L319.399,355.784L319.307,355.971L319.214,356.156L319.118,356.34L319.021,356.522L318.921,356.703L318.819,356.883L318.715,357.062L318.608,357.238L318.5,357.414L318.39,357.589L318.278,357.761L318.163,357.933L318.047,358.102L317.929,358.271L317.809,358.438L317.686,358.603L317.562,358.767L317.436,358.929L317.308,359.09L317.179,359.249L317.047,359.406L316.914,359.562L316.778,359.717L316.641,359.869L316.503,360.02L316.362,360.17L316.219,360.317L316.075,360.463L315.929,360.607L315.782,360.749L315.633,360.89L315.482,361.029L315.329,361.166L315.175,361.301L315.019,361.435L314.861,361.566L314.702,361.696L314.542,361.824L314.379,361.95L314.215,362.074L314.05,362.196L313.883,362.316L313.715,362.435L313.545,362.551L313.374,362.665L313.201,362.778L313.027,362.888L312.851,362.996L312.674,363.102L312.495,363.206L312.316,363.308L312.134,363.408L311.952,363.506L311.768,363.602L311.583,363.695L311.397,363.786L311.209,363.875L311.02,363.962L310.83,364.047L310.638,364.129L310.446,364.21L310.252,364.287L310.057,364.363L309.861,364.436L309.663,364.507L309.465,364.576L309.266,364.642L309.065,364.706L308.863,364.767L308.661,364.826L308.457,364.883L308.252,364.937L308.047,364.988L307.84,365.037L307.633,365.084L307.424,365.128L307.215,365.17L307.005,365.209L306.793,365.245L306.581,365.279L306.369,365.31L306.155,365.338L305.941,365.364L305.725,365.388L305.51,365.408L305.293,365.426L305.076,365.441L304.858,365.454L304.639,365.463L304.42,365.47L304.2,365.475L303.988,365.476L40.014,365.476L39.801,365.475L39.581,365.47L39.362,365.463L39.143,365.454L38.926,365.441L38.708,365.426L38.492,365.408L38.276,365.388L38.061,365.364L37.846,365.338L37.633,365.31L37.42,365.279L37.208,365.245L36.997,365.209L36.787,365.17L36.577,365.128L36.369,365.084L36.161,365.037L35.955,364.988L35.749,364.937L35.544,364.883L35.341,364.826L35.138,364.767L34.936,364.706L34.736,364.642L34.536,364.576L34.338,364.507L34.141,364.436L33.945,364.363L33.75,364.287L33.556,364.21L33.363,364.129L33.172,364.047L32.982,363.962L32.793,363.875L32.605,363.786L32.418,363.695L32.233,363.602L32.049,363.506L31.867,363.408L31.686,363.308L31.506,363.206L31.327,363.102L31.15,362.996L30.975,362.888L30.8,362.777L30.628,362.665L30.457,362.551L30.287,362.435L30.118,362.316L29.951,362.196L29.786,362.074L29.622,361.95L29.46,361.824L29.299,361.696L29.14,361.566L28.983,361.435L28.827,361.301L28.672,361.166L28.52,361.029L28.369,360.89L28.219,360.749L28.072,360.607L27.926,360.463L27.782,360.317L27.64,360.17L27.499,360.02L27.36,359.869L27.223,359.717L27.088,359.562L26.954,359.406L26.823,359.249L26.693,359.09L26.565,358.929L26.439,358.767L26.315,358.603L26.193,358.438L26.073,358.271L25.954,358.102L25.838,357.933L25.724,357.761L25.612,357.588L25.501,357.414L25.393,357.239L25.287,357.062L25.183,356.883L25.081,356.703L24.981,356.522L24.883,356.34L24.787,356.156L24.694,355.971L24.603,355.784L24.514,355.596L24.427,355.408L24.342,355.217L24.26,355.026L24.179,354.833L24.102,354.639L24.026,354.444L23.953,354.248L23.882,354.051L23.813,353.853L23.747,353.653L23.683,353.453L23.622,353.251L23.563,353.048L23.506,352.845L23.452,352.64L23.401,352.434L23.352,352.228L23.305,352.02L23.261,351.812L23.219,351.602L23.181,351.392L23.144,351.181L23.11,350.969L23.079,350.756L23.051,350.543L23.025,350.328L23.001,350.113L22.981,349.897L22.963,349.681L22.948,349.463L22.935,349.245L22.926,349.027L22.919,348.808L22.915,348.588L22.913,348.375L22.913,84.401L22.915,84.189L22.919,83.969L22.926,83.75L22.935,83.531L22.948,83.313L22.963,83.096L22.981,82.879L23.001,82.664L23.025,82.448L23.051,82.234L23.079,82.02L23.11,81.808L23.144,81.596L23.181,81.385L23.219,81.174L23.261,80.965L23.305,80.756L23.352,80.549L23.401,80.342L23.452,80.137L23.506,79.932L23.563,79.728L23.622,79.526L23.683,79.324L23.747,79.123L23.813,78.924L23.882,78.726L23.953,78.528L24.026,78.332L24.102,78.137L24.179,77.943L24.26,77.751L24.342,77.559L24.427,77.369L24.514,77.18L24.603,76.993L24.694,76.806L24.787,76.621L24.883,76.437L24.981,76.255L25.081,76.073L25.183,75.894L25.287,75.715L25.393,75.538L25.501,75.362L25.612,75.188L25.724,75.015L25.838,74.844L25.954,74.674L26.073,74.506L26.193,74.339L26.315,74.174L26.439,74.01L26.565,73.848L26.693,73.687L26.823,73.528L26.954,73.37L27.088,73.214L27.223,73.06L27.36,72.907L27.499,72.757L27.64,72.607L27.782,72.46L27.926,72.314L28.072,72.17L28.22,72.027L28.369,71.887L28.52,71.748L28.672,71.611L28.827,71.475L28.983,71.342L29.14,71.21L29.299,71.081L29.46,70.953L29.622,70.827L29.786,70.703L29.951,70.581L30.118,70.46L30.287,70.342L30.456,70.226L30.628,70.111L30.801,69.999L30.975,69.889L31.15,69.781L31.327,69.674L31.506,69.57L31.686,69.468L31.867,69.368L32.049,69.271L32.233,69.175L32.418,69.082L32.605,68.99L32.793,68.901L32.982,68.814L33.172,68.73L33.363,68.647L33.556,68.567L33.75,68.489L33.945,68.414L34.141,68.34L34.338,68.27L34.536,68.201L34.736,68.135L34.936,68.071L35.138,68.01L35.341,67.951L35.544,67.894L35.749,67.84L35.955,67.788L36.161,67.739L36.369,67.693L36.577,67.649L36.787,67.607L36.997,67.568L37.208,67.532ZM37.707,72.408L37.558,72.437L37.41,72.469L37.262,72.502L37.115,72.537L36.968,72.574L36.822,72.612L36.677,72.653L36.533,72.695L36.389,72.738L36.247,72.784L36.104,72.831L35.963,72.88L35.823,72.93L35.683,72.982L35.544,73.036L35.406,73.092L35.269,73.149L35.132,73.208L34.996,73.268L34.862,73.33L34.728,73.393L34.595,73.459L34.463,73.525L34.332,73.594L34.201,73.663L34.072,73.735L33.943,73.807L33.816,73.882L33.69,73.958L33.564,74.035L33.44,74.114L33.316,74.194L33.194,74.276L33.072,74.359L32.952,74.443L32.832,74.529L32.714,74.617L32.597,74.706L32.481,74.796L32.366,74.887L32.252,74.98L32.139,75.074L32.027,75.17L31.917,75.267L31.808,75.365L31.7,75.464L31.593,75.565L31.487,75.667L31.383,75.77L31.279,75.875L31.177,75.98L31.077,76.087L30.977,76.195L30.879,76.305L30.782,76.415L30.687,76.527L30.593,76.639L30.5,76.753L30.408,76.868L30.318,76.984L30.229,77.102L30.142,77.22L30.056,77.339L29.971,77.46L29.888,77.581L29.806,77.704L29.726,77.827L29.647,77.952L29.57,78.077L29.494,78.204L29.42,78.331L29.347,78.46L29.276,78.589L29.206,78.719L29.138,78.85L29.071,78.982L29.006,79.115L28.942,79.249L28.88,79.384L28.82,79.52L28.761,79.656L28.704,79.793L28.649,79.932L28.595,80.071L28.543,80.21L28.492,80.351L28.443,80.492L28.396,80.634L28.351,80.777L28.307,80.921L28.265,81.065L28.225,81.21L28.186,81.356L28.149,81.502L28.114,81.649L28.081,81.797L28.05,81.946L28.02,82.095L27.992,82.245L27.966,82.396L27.942,82.547L27.92,82.699L27.9,82.851L27.881,83.004L27.865,83.158L27.85,83.312L27.837,83.467L27.826,83.623L27.817,83.779L27.81,83.936L27.805,84.093L27.802,84.251L27.801,84.417L27.801,348.36L27.802,348.526L27.805,348.684L27.81,348.841L27.817,348.998L27.826,349.154L27.837,349.309L27.85,349.464L27.865,349.619L27.881,349.772L27.9,349.926L27.92,350.078L27.942,350.23L27.966,350.381L27.992,350.532L28.02,350.682L28.05,350.831L28.081,350.979L28.114,351.127L28.149,351.274L28.186,351.421L28.225,351.567L28.265,351.712L28.307,351.856L28.351,352L28.396,352.143L28.443,352.285L28.492,352.426L28.543,352.566L28.595,352.706L28.649,352.845L28.704,352.983L28.761,353.121L28.82,353.257L28.88,353.393L28.942,353.527L29.006,353.661L29.071,353.794L29.138,353.926L29.206,354.058L29.276,354.188L29.347,354.317L29.42,354.446L29.494,354.573L29.57,354.699L29.647,354.825L29.726,354.949L29.806,355.073L29.888,355.195L29.971,355.317L30.056,355.437L30.142,355.557L30.229,355.675L30.318,355.792L30.408,355.908L30.5,356.023L30.593,356.137L30.687,356.25L30.782,356.362L30.879,356.472L30.977,356.581L31.077,356.689L31.177,356.796L31.279,356.902L31.383,357.006L31.487,357.11L31.593,357.212L31.7,357.312L31.808,357.412L31.917,357.51L32.027,357.607L32.139,357.702L32.252,357.797L32.366,357.889L32.481,357.981L32.597,358.071L32.714,358.16L32.832,358.247L32.952,358.333L33.072,358.418L33.193,358.501L33.316,358.583L33.44,358.663L33.564,358.742L33.689,358.819L33.816,358.895L33.943,358.969L34.072,359.042L34.201,359.113L34.331,359.183L34.463,359.251L34.595,359.318L34.728,359.383L34.862,359.447L34.996,359.509L35.132,359.569L35.269,359.628L35.406,359.685L35.544,359.74L35.683,359.794L35.823,359.847L35.963,359.897L36.104,359.946L36.246,359.993L36.389,360.038L36.533,360.082L36.677,360.124L36.822,360.164L36.968,360.203L37.115,360.24L37.262,360.275L37.41,360.308L37.558,360.339L37.708,360.369L37.857,360.397L38.008,360.423L38.159,360.447L38.311,360.469L38.463,360.489L38.617,360.508L38.77,360.524L38.925,360.539L39.08,360.552L39.235,360.563L39.391,360.572L39.548,360.579L39.705,360.584L39.863,360.587L40.029,360.588L303.972,360.588L304.138,360.587L304.296,360.584L304.453,360.579L304.61,360.572L304.766,360.563L304.922,360.552L305.077,360.539L305.231,360.524L305.385,360.508L305.538,360.489L305.69,360.469L305.842,360.447L305.993,360.423L306.144,360.397L306.294,360.369L306.443,360.339L306.592,360.308L306.74,360.275L306.887,360.24L307.033,360.203L307.179,360.164L307.324,360.124L307.468,360.082L307.612,360.038L307.755,359.993L307.897,359.946L308.038,359.897L308.179,359.847L308.318,359.794L308.457,359.74L308.596,359.685L308.733,359.628L308.869,359.569L309.005,359.509L309.14,359.447L309.273,359.383L309.407,359.318L309.539,359.251L309.67,359.183L309.8,359.113L309.929,359.042L310.058,358.969L310.185,358.895L310.312,358.819L310.437,358.742L310.562,358.663L310.685,358.583L310.808,358.501L310.929,358.418L311.05,358.333L311.169,358.247L311.287,358.16L311.405,358.071L311.521,357.981L311.636,357.889L311.75,357.797L311.862,357.702L311.974,357.607L312.084,357.51L312.194,357.412L312.302,357.312L312.409,357.212L312.514,357.11L312.619,357.007L312.722,356.902L312.824,356.796L312.925,356.69L313.024,356.581L313.122,356.472L313.219,356.362L313.315,356.25L313.409,356.137L313.502,356.023L313.593,355.908L313.683,355.792L313.772,355.675L313.86,355.557L313.946,355.437L314.03,355.317L314.113,355.196L314.195,355.073L314.275,354.949L314.354,354.825L314.431,354.7L314.507,354.573L314.582,354.446L314.654,354.317L314.726,354.188L314.796,354.058L314.864,353.926L314.93,353.794L314.996,353.661L315.059,353.527L315.121,353.393L315.181,353.257L315.24,353.12L315.297,352.983L315.353,352.845L315.407,352.706L315.459,352.566L315.509,352.426L315.558,352.285L315.605,352.143L315.651,352L315.695,351.856L315.737,351.712L315.777,351.567L315.815,351.421L315.852,351.275L315.887,351.127L315.92,350.979L315.952,350.831L315.981,350.681L316.009,350.532L316.035,350.381L316.059,350.23L316.081,350.078L316.102,349.926L316.12,349.772L316.137,349.619L316.152,349.464L316.164,349.309L316.175,349.154L316.184,348.998L316.191,348.841L316.196,348.684L316.199,348.526L316.2,348.36L316.2,84.417L316.199,84.251L316.196,84.093L316.191,83.936L316.184,83.779L316.175,83.623L316.164,83.467L316.152,83.312L316.137,83.158L316.12,83.004L316.102,82.851L316.081,82.699L316.059,82.547L316.035,82.396L316.009,82.245L315.981,82.095L315.952,81.946L315.92,81.797L315.887,81.649L315.852,81.502L315.815,81.356L315.777,81.21L315.737,81.065L315.694,80.921L315.651,80.777L315.605,80.634L315.558,80.492L315.509,80.351L315.459,80.21L315.407,80.071L315.353,79.932L315.297,79.793L315.24,79.656L315.181,79.52L315.121,79.384L315.059,79.249L314.996,79.116L314.93,78.982L314.864,78.85L314.796,78.719L314.726,78.589L314.654,78.46L314.582,78.331L314.507,78.204L314.431,78.077L314.354,77.952L314.275,77.827L314.195,77.704L314.113,77.581L314.03,77.46L313.945,77.339L313.86,77.22L313.772,77.102L313.683,76.984L313.593,76.868L313.502,76.753L313.409,76.639L313.315,76.527L313.219,76.415L313.122,76.305L313.024,76.195L312.925,76.087L312.824,75.98L312.722,75.875L312.619,75.77L312.514,75.667L312.409,75.565L312.302,75.464L312.194,75.365L312.084,75.267L311.974,75.17L311.862,75.074L311.75,74.98L311.636,74.887L311.521,74.796L311.405,74.706L311.287,74.617L311.169,74.53L311.05,74.443L310.929,74.359L310.808,74.276L310.685,74.194L310.562,74.114L310.437,74.035L310.312,73.958L310.185,73.882L310.058,73.807L309.93,73.735L309.8,73.663L309.67,73.593L309.539,73.525L309.407,73.459L309.274,73.393L309.14,73.33L309.005,73.268L308.869,73.208L308.733,73.149L308.596,73.092L308.458,73.036L308.319,72.982L308.179,72.93L308.038,72.88L307.897,72.831L307.755,72.784L307.612,72.738L307.468,72.695L307.324,72.653L307.179,72.612L307.033,72.574L306.887,72.537L306.74,72.502L306.592,72.469L306.443,72.437L306.294,72.408L306.144,72.38L305.993,72.354L305.842,72.33L305.69,72.308L305.538,72.287L305.385,72.269L305.231,72.252L305.077,72.238L304.922,72.225L304.766,72.214L304.61,72.205L304.453,72.198L304.296,72.193L304.138,72.19L303.972,72.189L40.029,72.189L39.863,72.19L39.705,72.193L39.548,72.198L39.391,72.205L39.235,72.214L39.08,72.225L38.925,72.238L38.77,72.252L38.617,72.269L38.464,72.287L38.311,72.308L38.159,72.33L38.008,72.354L37.857,72.38L37.707,72.408Z"/>
    </g>
</svg>
