<?xml version="1.0" encoding="UTF-8" standalone="no"?>
<!DOCTYPE svg PUBLIC "-//W3C//DTD SVG 1.1//EN" "http://www.w3.org/Graphics/SVG/1.1/DTD/svg11.dtd">
<svg width="100%" height="100%" viewBox="0 0 400 400" version="1.1" xmlns="http://www.w3.org/2000/svg" xmlns:xlink="http://www.w3.org/1999/xlink" xml:space="preserve" style="fill-rule:evenodd;clip-rule:evenodd;stroke-linejoin:round;stroke-miterlimit:1.41421;">
    <g transform="matrix(2.02927,-0.267158,0.267158,2.02927,-174.315,-248.238)">
        <path d="M175.244,233.536L175.244,187.513C175.244,175.039 182.341,168.802 196.535,168.802C210.73,168.802 217.827,175.039 217.827,187.513L217.827,295.259C217.827,307.732 210.73,313.969 196.535,313.969C188.65,313.969 182.413,311.245 177.825,305.797L130.081,249.02L130.081,295.259C130.081,307.732 122.984,313.969 108.79,313.969C94.596,313.969 87.499,307.732 87.499,295.259L87.499,187.513C87.499,175.111 94.596,168.874 108.79,168.802C117.894,168.731 124.418,171.67 128.361,177.62L175.244,233.536Z" style="fill:none;"/>
        <clipPath id="_clip1">
            <path d="M175.244,233.536L175.244,187.513C175.244,175.039 182.341,168.802 196.535,168.802C210.73,168.802 217.827,175.039 217.827,187.513L217.827,295.259C217.827,307.732 210.73,313.969 196.535,313.969C188.65,313.969 182.413,311.245 177.825,305.797L130.081,249.02L130.081,295.259C130.081,307.732 122.984,313.969 108.79,313.969C94.596,313.969 87.499,307.732 87.499,295.259L87.499,187.513C87.499,175.111 94.596,168.874 108.79,168.802C117.894,168.731 124.418,171.67 128.361,177.62L175.244,233.536Z" clip-rule="nonzero"/>
        </clipPath>
        <g clip-path="url(#_clip1)">
            <path d="M175.244,233.536L175.244,187.513C175.244,175.039 182.341,168.802 196.535,168.802C210.73,168.802 217.827,175.039 217.827,187.513L217.827,295.259C217.827,307.732 210.73,313.969 196.535,313.969C188.65,313.969 182.413,311.245 177.825,305.797L130.081,249.02L130.081,295.259C130.081,307.732 122.984,313.969 108.79,313.969C94.596,313.969 87.499,307.732 87.499,295.259L87.499,187.513C87.499,175.111 94.596,168.874 108.79,168.802C117.894,168.731 124.418,171.67 128.361,177.62L175.244,233.536Z" style="fill-rule:nonzero;"/>
            <g transform="matrix(1.3278,-1.05254e-17,3.07175e-15,4.39676,-300.232,-1284.75)">
                <rect x="288.035" y="328.527" width="36.174" height="36.174" style="fill:rgb(234,67,53);"/>
            </g>
            <g transform="matrix(0.542925,0.653957,-0.300907,0.249817,109.543,78.4725)">
                <rect x="66.54" y="93.675" width="129.67" height="144.696" style="fill:rgb(251,188,5);"/>
            </g>
            <g transform="matrix(0.436523,-2.77556e-17,-3.05311e-16,1.03985,145.915,71.5748)">
                <rect x="66.54" y="93.675" width="129.67" height="144.696" style="fill:rgb(66,133,244);"/>
            </g>
            <g transform="matrix(0.452931,0.546353,-0.245017,0.203121,163.575,172.637)">
                <rect x="66.54" y="93.675" width="129.67" height="144.696" style="fill:rgb(52,168,83);"/>
            </g>
        </g>
        <path d="M175.244,233.536L175.244,187.513C175.244,175.039 182.341,168.802 196.535,168.802C210.73,168.802 217.827,175.039 217.827,187.513L217.827,295.259C217.827,307.732 210.73,313.969 196.535,313.969C188.65,313.969 182.413,311.245 177.825,305.797L130.081,249.02L130.081,295.259C130.081,307.732 122.984,313.969 108.79,313.969C94.596,313.969 87.499,307.732 87.499,295.259L87.499,187.513C87.499,175.111 94.596,168.874 108.79,168.802C117.894,168.731 124.418,171.67 128.361,177.62L175.244,233.536Z" style="fill:none;stroke:black;stroke-width:2.44px;"/>
    </g>
</svg>
